<?xml version="1.0" standalone="no"?><!DOCTYPE svg PUBLIC "-//W3C//DTD SVG 1.1//EN" "http://www.w3.org/Graphics/SVG/1.1/DTD/svg11.dtd"><svg t="1532505480898" class="icon" style="" viewBox="0 0 1024 1024" version="1.1" xmlns="http://www.w3.org/2000/svg" p-id="3479" xmlns:xlink="http://www.w3.org/1999/xlink" width="32" height="32"><defs><style type="text/css"></style></defs><path d="M491.107 396.092c0 52.731-42.784 95.514-95.514 95.514h-235.79c-52.73-0.499-95.514-43.281-95.514-95.514v-236.29c0-52.73 42.783-95.514 95.513-95.514h235.791c52.73 0 95.514 42.785 95.514 95.515v236.29z m-54.724-236.29c0-22.387-17.904-40.296-40.291-40.296h-236.29c-22.387 0-40.296 17.909-40.296 40.297V396.09c0 22.388 17.91 40.292 40.296 40.292h235.791c22.387 0 40.296-17.904 40.296-40.292V159.803h0.494zM174.23 284.663c-7.462 0-13.929-5.968-13.929-13.929v-24.872c0-38.305 25.366-71.633 60.686-71.633h86.064c7.457 0 13.927 5.97 13.927 13.93 0 7.458-5.97 13.929-13.927 13.929h-86.063c-21.39 0-32.83 23.875-32.83 44.27v24.875c0 7.462-5.972 13.43-13.928 13.43z m-4.977 47.258c-3.481 0-6.963-1.49-9.947-3.976-2.486-2.492-3.98-6.47-3.98-9.955 0-3.482 1.494-6.964 3.98-9.948 4.97-4.97 14.426-4.97 19.398 0 2.491 2.491 3.981 5.972 3.981 9.948 0 3.484-1.49 6.966-3.981 9.456-2.487 2.985-5.968 4.475-9.45 4.475z m790.458 64.172c0 52.731-42.783 95.514-95.512 95.514H627.906c-52.73 0-95.512-42.783-95.512-95.514v-236.29c0-52.73 42.781-95.514 95.512-95.514h236.29c52.73 0 95.513 42.785 95.513 95.515v236.29h0.001z m-55.22-236.29c0-22.387-17.905-40.296-40.292-40.296H627.906c-22.385 0-40.296 17.909-40.296 40.297V396.09c0 22.388 17.911 40.292 40.296 40.292h236.29c22.388 0 40.293-17.904 40.293-40.292V159.803zM491.107 864.2c0 52.728-42.784 95.512-95.514 95.512h-235.79c-52.73 0-95.514-42.784-95.514-95.512V627.908c0-52.731 42.783-95.514 95.513-95.514h235.791c52.73 0 95.514 42.783 95.514 95.514v236.291z m-54.724-236.291c0-22.388-17.904-40.297-40.291-40.297h-236.29c-22.387 0-40.296 17.909-40.296 40.297v236.291c0 22.386 17.91 40.291 40.296 40.291h235.791c22.387 0 40.296-17.905 40.296-40.29V627.907h0.494zM959.71 864.199c0 52.728-42.783 95.512-95.512 95.512H627.906c-52.73 0-95.512-42.784-95.512-95.512V627.908c0-52.731 42.781-95.514 95.512-95.514h236.29c52.73 0 95.513 42.783 95.513 95.514v236.291h0.001z m-55.22-236.291c0-22.388-17.905-40.297-40.292-40.297H627.906c-22.385 0-40.296 17.909-40.296 40.297v236.291c0 22.386 17.911 40.291 40.296 40.291h236.29c22.388 0 40.293-17.905 40.293-40.29V627.907z m0 0" p-id="3480" fill="#8a8a8a"></path></svg>