<?xml version="1.0" standalone="no"?><!DOCTYPE svg PUBLIC "-//W3C//DTD SVG 1.1//EN" "http://www.w3.org/Graphics/SVG/1.1/DTD/svg11.dtd"><svg t="1532683887213" class="icon" style="" viewBox="0 0 1024 1024" version="1.1" xmlns="http://www.w3.org/2000/svg" p-id="2522" xmlns:xlink="http://www.w3.org/1999/xlink" width="32" height="32"><defs><style type="text/css"></style></defs><path d="M512 995.388235c265.035294 0 481.882353-216.847059 481.882353-481.882353s-216.847059-481.882353-481.882353-481.882353-481.882353 216.847059-481.882353 481.882353 216.847059 481.882353 481.882353 481.882353z m0-60.235294c-234.917647 0-421.647059-186.729412-421.647059-421.647059s186.729412-421.647059 421.647059-421.647058 421.647059 186.729412 421.647059 421.647058-186.729412 421.647059-421.647059 421.647059z" fill="#222222" p-id="2523"></path><path d="M427.670588 423.152941c0-12.047059 6.023529-30.117647 12.047059-48.188235 12.047059-30.117647 36.141176-42.164706 66.258824-42.164706 66.258824 0 102.4 42.164706 102.4 102.4 0 42.164706-12.047059 60.235294-54.211765 84.329412-54.211765 36.141176-78.305882 66.258824-78.305882 126.494117h60.235294c0-36.141176 12.047059-54.211765 48.188235-78.305882 54.211765-36.141176 78.305882-66.258824 78.305882-132.517647 0-90.352941-60.235294-162.635294-162.635294-162.635294-54.211765 0-96.376471 30.117647-120.470588 72.282353-12.047059 24.094118-18.070588 54.211765-18.070588 72.282353l66.258823 6.023529z" fill="#222222" p-id="2524"></path><path d="M512 754.447059m-30.117647 0a30.117647 30.117647 0 1 0 60.235294 0 30.117647 30.117647 0 1 0-60.235294 0Z" fill="#222222" p-id="2525"></path></svg>