<?xml version="1.0" standalone="no"?><!DOCTYPE svg PUBLIC "-//W3C//DTD SVG 1.1//EN" "http://www.w3.org/Graphics/SVG/1.1/DTD/svg11.dtd"><svg t="1533804653393" class="icon" style="" viewBox="0 0 1024 1024" version="1.1" xmlns="http://www.w3.org/2000/svg" p-id="6853" xmlns:xlink="http://www.w3.org/1999/xlink" width="32" height="32"><defs><style type="text/css"></style></defs><path d="M960 96 57.6 96C25.6 96 0 115.2 0 147.2l0 576c0 25.6 25.6 51.2 51.2 51.2L960 774.4c25.6 0 51.2-25.6 51.2-51.2l0-576C1011.2 115.2 985.6 96 960 96zM947.2 627.2 64 627.2 64 153.6l889.6 0L953.6 627.2z" p-id="6854"></path><path d="M307.2 262.4m-57.6 0a0.9 0.9 0 1 0 115.2 0 0.9 0.9 0 1 0-115.2 0Z" p-id="6855"></path><path d="M537.6 396.8l243.2 0 0 166.4-243.2 0 0-166.4Z" p-id="6856"></path><path d="M537.6 230.4l243.2 0 0 19.2-243.2 0 0-19.2Z" p-id="6857"></path><path d="M537.6 268.8l243.2 0 0 19.2-243.2 0 0-19.2Z" p-id="6858"></path><path d="M236.8 396.8l243.2 0 0 19.2-243.2 0 0-19.2Z" p-id="6859"></path><path d="M236.8 435.2l243.2 0 0 19.2-243.2 0 0-19.2Z" p-id="6860"></path><path d="M236.8 467.2l243.2 0 0 19.2-243.2 0 0-19.2Z" p-id="6861"></path><path d="M236.8 505.6l243.2 0 0 19.2-243.2 0 0-19.2Z" p-id="6862"></path><path d="M236.8 544l243.2 0 0 19.2-243.2 0 0-19.2Z" p-id="6863"></path><path d="M678.4 876.8 608 876.8l-12.8-134.4L416 742.4l-12.8 134.4L332.8 876.8c-25.6 0-44.8 32-44.8 57.6l428.8 0C723.2 915.2 704 876.8 678.4 876.8z" p-id="6864"></path></svg>