<?xml version="1.0" standalone="no"?><!DOCTYPE svg PUBLIC "-//W3C//DTD SVG 1.1//EN" "http://www.w3.org/Graphics/SVG/1.1/DTD/svg11.dtd"><svg t="1533030525805" class="icon" style="" viewBox="0 0 1024 1024" version="1.1" xmlns="http://www.w3.org/2000/svg" p-id="1983" xmlns:xlink="http://www.w3.org/1999/xlink" width="300" height="300"><defs><style type="text/css"></style></defs><path d="M993.28 916.48h-906.24v-829.44c0-15.36-15.36-30.72-30.72-30.72s-30.72 15.36-30.72 30.72v855.04c0 15.36 15.36 30.72 30.72 30.72H993.28c15.36 0 30.72-15.36 30.72-30.72s-15.36-25.6-30.72-25.6z" p-id="1984" fill="#dbdbdb"></path><path d="M204.8 189.44v51.2c0 15.36 15.36 30.72 35.84 30.72h291.84c20.48 0 35.84-15.36 35.84-30.72v-51.2c0-15.36-15.36-30.72-35.84-30.72h-291.84c-20.48-5.12-35.84 10.24-35.84 30.72z m0 419.84c0 15.36 15.36 30.72 35.84 30.72h506.88c20.48 0 35.84-15.36 35.84-30.72v-51.2c0-15.36-15.36-30.72-35.84-30.72h-506.88c-20.48 0-35.84 15.36-35.84 30.72v51.2z m0-184.32c0 15.36 15.36 30.72 35.84 30.72h394.24c20.48 0 35.84-15.36 35.84-30.72v-51.2c0-15.36-15.36-30.72-35.84-30.72h-394.24c-20.48 0-35.84 15.36-35.84 30.72v51.2z m0 317.44v51.2c0 15.36 15.36 30.72 35.84 30.72h624.64c20.48 0 35.84-15.36 35.84-30.72v-51.2c0-15.36-15.36-30.72-35.84-30.72h-624.64c-20.48 0-35.84 10.24-35.84 30.72z" p-id="1985" fill="#dbdbdb"></path></svg>