<?xml version="1.0" standalone="no"?><!DOCTYPE svg PUBLIC "-//W3C//DTD SVG 1.1//EN" "http://www.w3.org/Graphics/SVG/1.1/DTD/svg11.dtd"><svg t="1533030504436" class="icon" style="" viewBox="0 0 1024 1024" version="1.1" xmlns="http://www.w3.org/2000/svg" p-id="1666" xmlns:xlink="http://www.w3.org/1999/xlink" width="300" height="300"><defs><style type="text/css"></style></defs><path d="M920.630004 877.801164H79.925882V612.891792l179.525359-179.525359c11.676446 5.351704 24.690818 8.514075 38.434969 8.514075 13.86578 0 26.758522-3.162371 38.434968-8.514075l125.765056 125.765055c-5.473334 11.676446-8.514075 24.690818-8.514076 38.434969 0 51.57097 41.840599 93.411569 93.411569 93.411569s93.411569-41.840599 93.411569-93.411569c0-13.74415-3.162371-26.758522-8.514075-38.434969l263.328186-263.328186c13.500891-13.379261 13.500891-35.150968 0-48.530229-13.379261-13.379261-35.150968-13.379261-48.530229 0L582.499584 511.331037c-10.946668-4.500297-22.866374-7.05452-35.515857-7.05452s-24.569189 2.554223-35.515857 7.05452L384.12163 383.984796c4.743556-11.189928 7.05452-23.352892 7.054519-35.515857 0-51.57097-41.840599-93.411569-93.411569-93.411569s-93.411569 41.840599-93.411569 93.411569c0 12.162965 2.432593 24.2043 7.05452 35.515857L79.925882 515.709704V161.645801c0-17.14978-13.987409-31.13719-31.13719-31.13719-17.14978 0-31.13719 13.987409-31.137189 31.13719v425.460506c-0.851408 4.135408-0.851408 8.392446 0 12.527854v309.304193c0 17.14978 13.987409 31.13719 31.137189 31.137189h871.841312c17.14978 0 31.13719-13.987409 31.137189-31.137189 0-17.14978-13.987409-31.13719-31.137189-31.13719zM546.983727 566.429267c17.14978 0 31.13719 13.987409 31.13719 31.13719 0 17.14978-13.987409 31.13719-31.13719 31.13719s-31.13719-13.987409-31.137189-31.13719c0-17.14978 13.86578-31.13719 31.137189-31.13719zM297.88621 317.33175c17.14978 0 31.13719 13.987409 31.137189 31.137189 0 17.14978-13.987409 31.13719-31.137189 31.13719-17.14978 0-31.13719-13.987409-31.13719-31.13719 0-17.14978 13.86578-31.13719 31.13719-31.137189z m0 0" p-id="1667" fill="#dbdbdb"></path><path d="M949.091341 128.197648c-10.946668-4.500297-22.866374-7.05452-35.515857-7.054519s-24.569189 2.554223-35.515857 7.054519m0.729778-0.364889c-35.637487 16.420002-58.62549 50.476304-58.62549 86.721939 0 47.800451 40.137784 93.411569 93.411569 93.411569s93.411569-45.611118 93.411569-93.411569c0-36.124005-22.866374-70.180306-58.260601-86.600309m-35.029338 55.341489c17.14978 0 31.13719 13.987409 31.137189 31.13719 0 17.14978-13.987409 31.13719-31.137189 31.13719s-31.13719-13.987409-31.13719-31.13719c0-17.14978 13.86578-31.13719 31.13719-31.13719z" p-id="1668" fill="#dbdbdb"></path></svg>