<?xml version="1.0" standalone="no"?><!DOCTYPE svg PUBLIC "-//W3C//DTD SVG 1.1//EN" "http://www.w3.org/Graphics/SVG/1.1/DTD/svg11.dtd"><svg t="1533030514379" class="icon" style="" viewBox="0 0 1024 1024" version="1.1" xmlns="http://www.w3.org/2000/svg" p-id="1824" xmlns:xlink="http://www.w3.org/1999/xlink" width="300" height="300"><defs><style type="text/css"></style></defs><path d="M154.60352 903.63904V201.32864c0-30.208 2.70336-50.4064 16.55296-64.256s34.04288-16.55808 64.25088-16.55808H790.5792c30.21312 0 50.41664 2.70848 64.26112 16.55808 13.85472 13.8496 16.5632 34.05312 16.5632 64.26112v702.3104l-358.41024-196.3776-358.38976 196.37248z m358.38976-237.05088l322.74944 176.83968V201.32864c0-15.3344-0.69632-33.61792-6.1184-39.04-5.41696-5.42208-23.71072-6.1184-39.04512-6.1184H235.41248c-15.32416 0-33.60768 0.69632-39.02976 6.1184-5.41696 5.42208-6.10816 23.71072-6.10816 39.04v642.10432l322.71872-176.8448z" p-id="1825" fill="#dbdbdb"></path><path d="M392.73472 280.73472h268.90752v35.6608H392.73472v-35.6608zM682.3424 494.2848h35.67104v144.78848h-35.67104V494.2848z" p-id="1826" fill="#dbdbdb"></path><path d="M627.22048 548.82816h145.93024v35.67104h-145.93024v-35.67104z" p-id="1827" fill="#dbdbdb"></path></svg>