<?xml version="1.0" standalone="no"?><!DOCTYPE svg PUBLIC "-//W3C//DTD SVG 1.1//EN" "http://www.w3.org/Graphics/SVG/1.1/DTD/svg11.dtd"><svg t="1533030490270" class="icon" style="" viewBox="0 0 1024 1024" version="1.1" xmlns="http://www.w3.org/2000/svg" p-id="1509" xmlns:xlink="http://www.w3.org/1999/xlink" width="300" height="300"><defs><style type="text/css"></style></defs><path d="M970.217412 728.064l-400.805647 222.509176c-31.563294 17.588706-82.944 17.588706-114.447059 0L53.857882 728.064c-31.563294-17.528471-31.563294-46.08 0-63.427765l53.248-29.635764 308.645647 171.309176c34.575059 19.275294 71.378824 23.190588 96.376471 23.190588 24.696471 0 61.560471-3.975529 96.316235-23.190588l308.404706-171.309176 53.308235 29.455058c31.503059 17.709176 31.503059 46.08 0 63.608471zM53.918118 299.188706c-31.744-17.588706-31.744-45.959529 0-63.488L454.904471 13.191529c31.563294-17.588706 82.944-17.588706 114.447058 0l400.624942 222.509177c31.563294 17.347765 31.563294 45.899294 0 63.427765L569.231059 521.637647c-31.503059 17.588706-82.883765 17.588706-114.447059 0L53.918118 299.128471z m114.507294-23.491765l300.694588 136.794353c23.672471 10.842353 62.223059 10.842353 85.895529 0l300.634353-136.734118c23.672471-10.842353 23.672471-28.370824 0-39.092705L555.136 90.352941c-23.672471-10.842353-62.223059-10.842353-85.835294 0L168.425412 236.724706c-23.792941 10.782118-23.792941 28.190118 0 38.972235z m801.731764 174.381177l-53.248-29.515294-308.645647 171.369411c-34.514824 19.275294-71.378824 23.190588-96.316235 23.190589-24.696471 0-61.560471-3.975529-96.316235-23.190589L107.226353 420.562824l-53.308235 29.515294c-31.563294 17.528471-31.563294 46.08 0 63.427764L454.784 736.075294c31.563294 17.588706 82.944 17.588706 114.447059 0l400.805647-222.509176c31.744-17.347765 31.744-45.899294 0.240941-63.427765z" p-id="1510" fill="#dbdbdb"></path></svg>