<?xml version="1.0" standalone="no"?><!DOCTYPE svg PUBLIC "-//W3C//DTD SVG 1.1//EN" "http://www.w3.org/Graphics/SVG/1.1/DTD/svg11.dtd"><svg t="1533029140117" class="icon" style="" viewBox="0 0 1434 1024" version="1.1" xmlns="http://www.w3.org/2000/svg" p-id="922" xmlns:xlink="http://www.w3.org/1999/xlink" width="420.1171875" height="300"><defs><style type="text/css"></style></defs><path d="M1157.565217 0H281.971014c-44.521739 0-74.202899 34.628019-74.202898 74.202899v875.594202c0 39.574879 34.628019 74.202899 74.202898 74.202899h875.594203c39.574879 0 74.202899-34.628019 74.202899-74.202899V74.202899c0-39.574879-34.628019-74.202899-74.202899-74.202899zM281.971014 949.797101z m875.594203 0l-281.971014-301.758454-138.512077 123.671498-212.714976-192.927536-212.714976 192.927536-29.68116 34.628019V74.202899h875.594203v875.594202z m-232.502415-440.270531c74.202899 0 138.512077-59.362319 138.512077-138.512077 0-74.202899-59.362319-138.512077-138.512077-138.512078-74.202899 0-138.512077 59.362319-138.512077 138.512078 0 79.149758 64.309179 138.512077 138.512077 138.512077zM163.246377 173.140097V98.937198H74.202899C34.628019 98.937198 0 133.565217 0 173.140097v672.772946c0 39.574879 34.628019 74.202899 74.202899 74.202899h89.043478v-74.202899H74.202899V173.140097h89.043478z m1108.096618 672.772946v74.202899h89.043478c39.574879 0 74.202899-34.628019 74.202899-74.202899V173.140097c0-39.574879-34.628019-74.202899-74.202899-74.202899h-89.043478v74.202899h89.043478v672.772946h-89.043478z m0 0" fill="#e6e6e6" p-id="923"></path></svg>