<?xml version="1.0" standalone="no"?><!DOCTYPE svg PUBLIC "-//W3C//DTD SVG 1.1//EN" "http://www.w3.org/Graphics/SVG/1.1/DTD/svg11.dtd"><svg t="1534232722779" class="icon" style="" viewBox="0 0 1024 1024" version="1.1" xmlns="http://www.w3.org/2000/svg" p-id="7728" xmlns:xlink="http://www.w3.org/1999/xlink" width="32" height="32"><defs><style type="text/css"></style></defs><path d="M221.184 181.76h159.744v654.848H221.184V181.76zM442.368 181.76h356.864v107.52H442.368v-107.52zM442.368 366.08h356.864v108.544H442.368V366.08zM442.368 545.28h356.864v103.424H442.368v-103.424zM442.368 731.136h356.864v105.472H442.368v-105.472z" p-id="7729" fill="#1296db"></path><path d="M887.296 31.232H138.24c-57.856 0-104.448 46.592-104.448 104.448v749.056c0 57.856 46.592 104.448 104.448 104.448h748.544c57.856 0 104.448-46.592 104.448-104.448V135.68c0.512-57.856-46.592-104.448-103.936-104.448z m52.224 860.16c0 12.288-4.608 23.552-13.312 32.256-8.704 8.704-19.968 13.312-32.256 13.312H131.584c-25.088 0-45.568-20.48-45.568-45.568v-762.88c0-25.088 20.48-45.568 45.568-45.568h762.368c25.088 0 45.568 20.48 45.568 45.568v762.88z" p-id="7730" fill="#1296db"></path></svg>