<?xml version="1.0" standalone="no"?><!DOCTYPE svg PUBLIC "-//W3C//DTD SVG 1.1//EN" "http://www.w3.org/Graphics/SVG/1.1/DTD/svg11.dtd"><svg t="1533291376275" class="icon" style="" viewBox="0 0 1024 1024" version="1.1" xmlns="http://www.w3.org/2000/svg" p-id="23304" xmlns:xlink="http://www.w3.org/1999/xlink" width="128" height="128"><defs><style type="text/css"></style></defs><path d="M935.219489 766.327406 935.219489 222.950791 87.086939 222.950791l0 543.376615 352.524892 0 0 34.978652-180.951235 0 0 28.832675L765.34452 830.138734l0-28.832675L588.308455 801.306058l0-34.978652L935.219489 766.327406zM149.124877 686.315094 149.124877 284.981566l724.039277 0L873.164155 686.262906 149.124877 686.262906 149.124877 686.315094z" p-id="23305" fill="#888888"></path><path d="M284.246321 448.03006l452.513164 0L736.759485 337.15995 284.246321 337.15995 284.246321 448.03006zM293.240159 346.149695l434.528558 0 0 92.89062L293.240159 439.040315 293.240159 346.149695z" p-id="23306" fill="#888888"></path><path d="M283.807323 565.751205 422.987199 565.751205l0-100.002598L283.807323 465.748606 283.807323 565.751205zM292.797068 474.721978l121.199363 0 0 82.038458L292.797068 556.760436 292.797068 474.721978z" p-id="23307" fill="#888888"></path><path d="M440.371124 565.751205l139.125641 0 0-100.002598L440.371124 465.748606 440.371124 565.751205zM449.360869 474.721978l121.144104 0 0 82.038458L449.360869 556.760436 449.360869 474.721978z" p-id="23308" fill="#888888"></path><path d="M737.145272 465.732234 598.004281 465.732234l0 100.019994 139.142014 0L737.146295 465.732234zM728.155527 556.760436 606.994026 556.760436l0-82.022085 121.161501 0L728.155527 556.760436z" p-id="23309" fill="#888888"></path><path d="M283.807323 588.509535l125.447107 0 0 8.710382-125.447107 0 0-8.710382Z" p-id="23310" fill="#888888"></path><path d="M283.807323 604.523253l139.179876 0 0 8.710382-139.179876 0 0-8.710382Z" p-id="23311" fill="#888888"></path><path d="M283.807323 621.09979l113.366977 0 0 8.709359-113.366977 0 0-8.709359Z" p-id="23312" fill="#888888"></path><path d="M283.807323 639.081327l126.852106 0 0 8.709359-126.852106 0 0-8.709359Z" p-id="23313" fill="#888888"></path><path d="M275.660782 655.970996l81.319074 0 0 8.710382-81.319074 0 0-8.710382Z" p-id="23314" fill="#888888"></path><path d="M440.371124 588.509535l125.426641 0 0 8.710382-125.426641 0 0-8.710382Z" p-id="23315" fill="#888888"></path><path d="M440.371124 604.523253l139.15941 0 0 8.710382-139.15941 0 0-8.710382Z" p-id="23316" fill="#888888"></path><path d="M440.371124 621.09979l113.347534 0 0 8.709359-113.347534 0 0-8.709359Z" p-id="23317" fill="#888888"></path><path d="M440.371124 639.081327l126.83164 0 0 8.709359-126.83164 0 0-8.709359Z" p-id="23318" fill="#888888"></path><path d="M432.186721 655.970996l81.32112 0 0 8.710382-81.32112 0 0-8.710382Z" p-id="23319" fill="#888888"></path><path d="M599.373465 587.806523l125.428687 0 0 8.711406-125.428687 0 0-8.711406Z" p-id="23320" fill="#888888"></path><path d="M599.373465 603.822288l139.142014 0 0 8.710382-139.142014 0 0-8.710382Z" p-id="23321" fill="#888888"></path><path d="M599.373465 620.397802l113.347534 0 0 8.711406-113.347534 0 0-8.711406Z" p-id="23322" fill="#888888"></path><path d="M599.373465 638.377292l126.833687 0 0 8.710382-126.833687 0 0-8.710382Z" p-id="23323" fill="#888888"></path><path d="M591.224878 655.270031l81.302701 0 0 8.710382-81.302701 0 0-8.710382Z" p-id="23324" fill="#888888"></path><path d="M491.677651 300.80188 283.77253 300.80188l0 25.286919 207.906144 0L491.678674 300.80188zM482.688929 317.132824 292.765345 317.132824l0-7.314593 189.924607 0L482.689952 317.132824z" p-id="23325" fill="#888888"></path></svg>