<?xml version="1.0" standalone="no"?><!DOCTYPE svg PUBLIC "-//W3C//DTD SVG 1.1//EN" "http://www.w3.org/Graphics/SVG/1.1/DTD/svg11.dtd"><svg t="1534232753110" class="icon" style="" viewBox="0 0 1024 1024" version="1.1" xmlns="http://www.w3.org/2000/svg" p-id="7945" xmlns:xlink="http://www.w3.org/1999/xlink" width="32" height="32"><defs><style type="text/css"></style></defs><path d="M128 140.8a51.2 51.2 0 0 0-51.2 51.2v640a51.2 51.2 0 0 0 51.2 51.2h768a51.2 51.2 0 0 0 51.2-51.2V192a51.2 51.2 0 0 0-51.2-51.2H128zM128 64h768a128 128 0 0 1 128 128v640a128 128 0 0 1-128 128H128a128 128 0 0 1-128-128V192a128 128 0 0 1 128-128zM64 320h896v76.8H64V320z m256 0h76.8v576H320V320z" p-id="7946" fill="#ffffff"></path></svg>