<?xml version="1.0" standalone="no"?><!DOCTYPE svg PUBLIC "-//W3C//DTD SVG 1.1//EN" "http://www.w3.org/Graphics/SVG/1.1/DTD/svg11.dtd"><svg t="1533113357379" class="icon" style="" viewBox="0 0 1024 1024" version="1.1" xmlns="http://www.w3.org/2000/svg" p-id="1842" xmlns:xlink="http://www.w3.org/1999/xlink" width="32" height="32"><defs><style type="text/css"></style></defs><path d="M512 1024C229.227355 1024 0 794.772645 0 512 0 229.227355 229.227355 0 512 0c282.772645 0 512 229.227355 512 512 0 282.772645-229.227355 512-512 512z m0-247.741935a33.032258 33.032258 0 1 0 0.016516-66.048A33.032258 33.032258 0 0 0 512 776.258065z m0-578.064517a49.548387 49.548387 0 0 0-49.548387 49.548387l16.516129 363.354839a33.032258 33.032258 0 1 0 66.064516 0l16.516129-363.239226V247.741935a49.548387 49.548387 0 0 0-49.548387-49.548387z" fill="#bc1460" p-id="1843"></path></svg>