<?xml version="1.0" standalone="no"?><!DOCTYPE svg PUBLIC "-//W3C//DTD SVG 1.1//EN" "http://www.w3.org/Graphics/SVG/1.1/DTD/svg11.dtd"><svg t="1533193936134" class="icon" style="" viewBox="0 0 1024 1024" version="1.1" xmlns="http://www.w3.org/2000/svg" p-id="7062" xmlns:xlink="http://www.w3.org/1999/xlink" width="16" height="16"><defs><style type="text/css"></style></defs><path d="M512 0a512 512 0 1 0 512 512A512 512 0 0 0 512 0z m-16.409797 821.421414a60.479776 60.479776 0 1 1 59.33324-60.479776 59.978167 59.978167 0 0 1-59.33324 60.479776z m165.746116-379.790063a167.035969 167.035969 0 0 1-29.236669 40.415395q-16.839748 16.983065-60.694751 57.326802A249.228272 249.228272 0 0 0 551.770469 558.936319a87.136739 87.136739 0 0 0-10.892093 15.693212 70.870259 70.870259 0 0 0-5.517704 14.331701q-1.863121 7.16585-5.875997 25.080475C525.40014 639.480476 511.140098 652.092372 487.277817 652.092372a42.493492 42.493492 0 0 1-31.171449-12.468579 49.587684 49.587684 0 0 1-12.611896-36.975787 139.304129 139.304129 0 0 1 9.243946-53.242268 136.151155 136.151155 0 0 1 24.507208-39.555493 565.60056 565.60056 0 0 1 41.275298-40.415395C533.99916 455.748076 544.604619 445.429251 551.770469 438.406718a103.044927 103.044927 0 0 0 17.054723-23.289013 58.043387 58.043387 0 0 0 7.165851-27.803499 65.56753 65.56753 0 0 0-21.497551-49.372708 76.10133 76.10133 0 0 0-54.675437-20.13604q-39.197201 0-57.326802 20.279357a161.518265 161.518265 0 0 0-31.243107 59.834849q-12.038628 41.418614-45.933101 41.346956a48.226172 48.226172 0 0 1-47.437928-45.718125 135.43457 135.43457 0 0 1 21.497551-70.440307 168.397481 168.397481 0 0 1 63.346116-59.118265 195.126102 195.126102 0 0 1 97.168929-23.360672 202.220294 202.220294 0 0 1 91.077957 19.562771A148.763051 148.763051 0 0 1 652.092372 313.43429 133.571449 133.571449 0 0 1 673.589923 386.955913a113.005458 113.005458 0 0 1-12.038628 54.675438z" fill="#e0d61a" p-id="7063"></path></svg>