<?xml version="1.0" standalone="no"?><!DOCTYPE svg PUBLIC "-//W3C//DTD SVG 1.1//EN" "http://www.w3.org/Graphics/SVG/1.1/DTD/svg11.dtd"><svg t="1534491498626" class="icon" style="" viewBox="0 0 1529 1024" version="1.1" xmlns="http://www.w3.org/2000/svg" p-id="5792" xmlns:xlink="http://www.w3.org/1999/xlink" width="47.78125" height="32"><defs><style type="text/css"></style></defs><path d="M13.036243 1010.402388C13.036243 1010.402388 13.036243 1010.402388 13.036243 1010.402388L13.036243 1010.402388 13.036243 1010.402388zM1089.555461 444.167875l53.080587-155.125053c62.311994 0.436621 120.444905-36.863252 140.529451-95.744655 24.824998-72.54139-17.527197-150.259853-94.559542-173.650241-77.094719-23.390388-159.616008 16.466833-184.441006 89.008223-20.146921 58.819029 3.929585 121.068648 54.764695 154.93793l-52.020223 152.068709c-78.279832-22.517147-162.235731-34.617774-249.310349-34.617774-84.018274 0-164.79308 11.227386-240.078943 32.185174L466.310775 263.594079c50.897484-33.869282 74.911616-96.118901 54.764695-154.93793C496.250472 36.114759 413.666809-3.680088 336.634464 19.647926 259.539745 42.97594 217.249924 120.756777 242.074922 193.298167 262.159469 252.117196 320.29238 289.417068 382.604374 288.980447l52.082597 152.068709c-248.811354 98.613876-420.590364 310.000609-421.588354 569.290857l1496.672961 0.249497C1509.584455 754.230858 1336.932204 544.153987 1089.555461 444.167875zM1509.709204 1010.651885c0 0.124749 0 0.187123 0 0.311872L1509.709204 1010.651885 1509.709204 1010.651885z" p-id="5793" fill="#0099cc"></path></svg>